PathFileType	4	(X/Y/Z)	C:/Users/opensim2020/Desktop/walking_exp_matlab/subject02_walking09_straight_04.trc																																																																																																																												
DataRate	CameraRate	NumFrames	NumMarkers	Units	OrigDataRate	OrigDataStartFrame	OrigNumFrames																																																																																																																								
100	100	5	42	mm	100	3078	285																																																																																																																								
Frame#	Time	LFHD			RFHD			LBHD			RBHD			C7			T10			CLAV			STRN			RBAK			LSHO			LUPA			LELB			LFRM			LWRA			LWRB			LFIN			RSHO			RUPA			RELB			RFRM			RWRA			RWRB			RFIN			LASI			RASI			LPSI			RPSI			LTHI			LKNE			LTIB			LANK			LHEE			LTOE			RTHI			RKNE			RTIB			RANK			RHEE			RTOE			*39			*40			*41		
		X1	Y1	Z1	X2	Y2	Z2	X3	Y3	Z3	X4	Y4	Z4	X5	Y5	Z5	X6	Y6	Z6	X7	Y7	Z7	X8	Y8	Z8	X9	Y9	Z9	X10	Y10	Z10	X11	Y11	Z11	X12	Y12	Z12	X13	Y13	Z13	X14	Y14	Z14	X15	Y15	Z15	X16	Y16	Z16	X17	Y17	Z17	X18	Y18	Z18	X19	Y19	Z19	X20	Y20	Z20	X21	Y21	Z21	X22	Y22	Z22	X23	Y23	Z23	X24	Y24	Z24	X25	Y25	Z25	X26	Y26	Z26	X27	Y27	Z27	X28	Y28	Z28	X29	Y29	Z29	X30	Y30	Z30	X31	Y31	Z31	X32	Y32	Z32	X33	Y33	Z33	X34	Y34	Z34	X35	Y35	Z35	X36	Y36	Z36	X37	Y37	Z37	X38	Y38	Z38	X39	Y39	Z39	X40	Y40	Z40	X41	Y41	Z41	X42	Y42	Z42
																																																																																																																															
72	0.71	-444.16843	1737.31812	-1472.24719	-454.1539	1717.56555	-1330.30786	-567.59436	1652.71338	-1490.60107	-589.32922	1631.46252	-1350.59753	-618.49872	1511.6084	-1407.49976	-672.03265	1239.58081	-1395.06787	-477.90869	1446.14197	-1427.28894	-424.89154	1274.15564	-1411.22083	-668.84149	1342.995	-1331.24731	-560.96484	1478.42749	-1592.69678	-597.67432	1277.42346	-1666.55188	-616.28723	1137.64087	-1672.89075	-617.08649	1004.67914	-1679.61938	-570.55853	876.54602	-1640.50867	-615.40747	881.19739	-1675.7467	-601.771	815.35461	-1674.19336	-522.0722	1488.96692	-1228.17493	-504.01434	1297.8407	-1138.11438	-449.81534	1159.14001	-1123.62207	-379.30292	1059.56055	-1117.55774	-292.5354	961.63336	-1151.28967	-329.96674	938.95532	-1114.97546	-270.3295	898.6571	-1118.49146	-436.58047	979.62463	-1532.41711	-449.63861	956.56934	-1273.97791	-651.12134	1021.85156	-1456.22375	-659.02478	1021.27692	-1342.69739	-443.76288	680.52155	-1612.20032	-420.60178	479.91095	-1584.90491	-423.85837	285.43665	-1590.37415	-351.20422	70.76796	-1576.81763	-371.23822	36.62751	-1522.18042	-194.18149	62.8165	-1596.98767	-585.23999	661.44135	-1221.39282	-634.75507	456.37906	-1258.58191	-734.70087	294.5665	-1252.35681	-812.64081	116.05254	-1289.44324	-859.95337	68.91349	-1344.90894	-673.64191	38.84221	-1275.73376	-557.31177	1794.16821	-1389.80542	-2845.81714	1034.0675	3356.78418	NaN	NaN	NaN
73	0.72	-436.1207	1736.17847	-1475.10254	-445.95975	1716.7406	-1333.20349	-559.46741	1651.5116	-1493.29602	-581.11694	1630.41687	-1353.24268	-610.33606	1510.30347	-1410.3186	-662.60022	1237.85559	-1398.19385	-469.4646	1445.34863	-1429.69263	-415.62454	1273.70935	-1413.53186	-660.1394	1341.32678	-1334.16858	-552.10321	1477.4137	-1595.34033	-586.62646	1275.83472	-1669.36316	-603.97986	1136.07935	-1675.88464	-604.00305	1003.25488	-1682.85718	-557.20306	875.29065	-1643.82666	-601.66553	879.7359	-1679.35107	-587.69708	813.94641	-1677.86023	-514.57007	1487.97302	-1230.68274	-497.37521	1296.73584	-1140.77124	-444.52533	1157.505	-1126.63977	-374.35239	1057.63403	-1120.42639	-288.23441	959.03113	-1154.15076	-326.25217	936.51788	-1118.09082	-266.76904	895.86279	-1121.79944	-425.56711	979.37256	-1535.43445	-439.55325	955.70355	-1276.88757	-640.45691	1020.58508	-1459.88855	-648.92542	1019.96655	-1346.50049	-433.76691	679.18915	-1614.87854	-413.23547	478.1619	-1587.13635	-418.46353	283.16971	-1590.52734	-348.98969	68.55938	-1576.78479	-369.95547	36.65723	-1522.44177	-191.22755	55.63548	-1595.90369	-576.63171	660.91608	-1223.32593	-627.02521	456.04706	-1259.29346	-729.97528	296.05649	-1252.86682	-811.53876	118.89134	-1289.10498	-858.92505	72.5495	-1344.38098	-673.35291	38.86868	-1275.4967	-549.28625	1793.23267	-1392.86694	NaN	NaN	NaN	NaN	NaN	NaN
74	0.73	-427.95486	1735.30676	-1478.10229	-437.69772	1715.8877	-1335.91711	-551.30316	1650.42859	-1496.07397	-572.82635	1629.58997	-1355.90393	-602.22418	1508.96594	-1413.18372	-653.16956	1236.32129	-1401.60608	-460.89047	1444.5575	-1432.12366	-406.48059	1273.47314	-1416.11938	-651.59094	1339.75867	-1337.47412	-543.23615	1476.43713	-1598.04016	-575.40021	1274.20593	-1672.05408	-591.37164	1134.30225	-1678.46924	-590.67865	1001.8183	-1686.08936	-543.32928	873.7207	-1646.82324	-587.73645	878.37335	-1682.9502	-573.50928	812.81287	-1681.82727	-507.10757	1487.0719	-1233.23364	-491.702	1295.5564	-1144.22827	-439.55441	1155.90649	-1129.36902	-369.97913	1055.51941	-1123.56848	-284.42276	956.3457	-1157.09009	-322.72147	933.95502	-1120.78784	-263.6149	892.58228	-1124.78894	-414.50735	979.27191	-1538.46155	-429.15369	954.8877	-1279.93359	-629.59619	1019.33325	-1463.93811	-638.81122	1018.51349	-1350.52307	-424.34387	678.18604	-1617.74121	-406.51068	476.75296	-1589.95752	-412.83658	281.52866	-1590.6936	-344.60196	67.9595	-1577.34375	-367.25983	37.9655	-1524.22156	-186.27565	46.4496	-1595.16577	-567.61713	660.5293	-1225.323	-618.95233	455.79807	-1260.1958	-724.85529	297.69861	-1253.5127	-809.70685	121.98163	-1288.56006	-857.67365	76.75374	-1343.91321	-673.2254	38.94144	-1274.99512	-541.1488	1792.36523	-1395.86377	-2845.17798	1034.0448	3360.26099	NaN	NaN	NaN
75	0.74	-419.8967	1734.96204	-1481.31897	-429.48141	1715.84033	-1339.0553	-543.04718	1649.83447	-1498.92847	-564.52979	1629.16406	-1358.71411	-594.24561	1507.84375	-1416.177	-643.80756	1235.427	-1405.30298	-452.29254	1444.10852	-1434.71155	-397.34732	1273.27197	-1418.41638	-643.30023	1338.50354	-1341.36963	-534.35529	1475.57214	-1600.88684	-564.4718	1272.97449	-1675.25671	-578.9986	1133.03638	-1681.94019	-577.06824	1000.23486	-1689.12524	-529.38135	872.88184	-1650.43884	-573.49194	877.11157	-1686.50793	-558.84857	811.66711	-1685.51843	-499.7915	1486.02771	-1235.75671	-484.14493	1294.39258	-1146.47607	-434.56201	1154.14868	-1132.39771	-366.02707	1052.91516	-1126.14783	-281.67422	953.09937	-1160.03162	-319.37799	931.27374	-1123.67859	-260.55981	889.29083	-1127.81873	-403.46402	979.29852	-1541.36206	-418.48193	954.18463	-1283.11804	-618.66504	1018.29797	-1468.31042	-628.73169	1016.95929	-1354.78369	-415.65033	678.16333	-1620.8291	-399.59628	476.59018	-1593.13147	-405.59351	281.58932	-1591.15479	-338.24429	68.75787	-1579.68494	-364.11731	39.66643	-1526.42688	-180.09431	42.65485	-1595.55347	-558.43719	659.9707	-1227.1781	-610.5318	455.83182	-1261.14648	-719.32617	299.6886	-1254.28528	-807.32904	125.63204	-1287.94446	-856.06427	81.46768	-1343.31702	-673.06494	39.00435	-1274.62305	-533.01239	1791.92017	-1398.89624	-2845.27002	1033.94592	3360.35132	NaN	NaN	NaN
76	0.75	-411.57379	1734.85657	-1484.06555	-421.26581	1716.00525	-1342.00293	-534.71069	1649.75317	-1501.84839	-556.2229	1629.18958	-1361.62341	-586.15826	1507.22363	-1419.31995	-634.42126	1234.86328	-1408.87842	-443.86826	1444.02258	-1437.30212	-388.40088	1273.76819	-1421.25159	-634.7879	1337.54968	-1345.2168	-525.49628	1474.99561	-1603.90271	-553.25153	1271.65344	-1678.27771	-566.13715	1131.50342	-1684.83435	-563.51062	999.185	-1692.76477	-515.05493	871.64313	-1653.48352	-559.07654	875.94574	-1690.05994	-544.00116	810.69727	-1689.30591	-492.28528	1485.31824	-1238.06653	-478.14133	1293.0448	-1149.46716	-429.55206	1152.44727	-1135.49597	-361.67856	1050.73083	-1129.24561	-278.315	950.04877	-1162.80066	-316.21371	928.60376	-1126.5802	-258.00131	885.88116	-1130.83044	-392.54745	979.59082	-1544.25134	-407.78763	953.45361	-1286.47607	-607.85895	1017.80005	-1472.60815	-618.61163	1015.38446	-1359.07263	-407.20502	679.2962	-1624.1615	-391.16333	477.69864	-1595.99561	-397.54797	282.89377	-1593.6825	-334.44897	68.39832	-1579.99683	-362.46356	40.45935	-1526.40723	-178.00392	39.97622	-1597.7373	-548.97327	659.78607	-1228.93701	-601.48608	456.06265	-1262.09167	-713.68323	302.23553	-1254.62183	-804.2074	129.64304	-1287.44568	-853.97906	86.85076	-1342.80774	-672.77472	39.02429	-1274.33984	-524.87244	1791.91125	-1402.01965	NaN	NaN	NaN	NaN	NaN	NaN
